<?xml version="1.0" encoding="UTF-8"?>
<!DOCTYPE svg PUBLIC "-//W3C//DTD SVG 1.1//EN" "http://www.w3.org/Graphics/SVG/1.1/DTD/svg11.dtd">
<!-- Creator: CorelDRAW X7 -->
<svg xmlns="http://www.w3.org/2000/svg" xml:space="preserve" width="150px" height="150px" version="1.1" style="shape-rendering:geometricPrecision; text-rendering:geometricPrecision; image-rendering:optimizeQuality; fill-rule:evenodd; clip-rule:evenodd"
viewBox="0 0 150 150"
 xmlns:xlink="http://www.w3.org/1999/xlink">
 <defs>
  <style type="text/css">
   <![CDATA[
    .fil1 {fill:#0C7CEF}
    .fil5 {fill:#10D0F2}
    .fil2 {fill:#13B1EE}
    .fil3 {fill:#16E4F9}
    .fil6 {fill:#2E961A}
    .fil4 {fill:#32B018}
    .fil7 {fill:#59C724}
    .fil0 {fill:#96E917}
   ]]>
  </style>
 </defs>
 <g id="Capa_x0020_1">
  <metadata id="CorelCorpID_0Corel-Layer"/>
  <path class="fil0" d="M42 -598l0 1 1 0c3,-6 8,-10 15,-12 9,-2 17,2 21,6 -5,0 -10,0 -15,-1 -6,0 -12,-1 -13,3l-1 5c1,-1 1,-1 2,-1 0,-3 0,-5 3,-5 3,0 7,0 10,0 4,1 13,1 17,1 0,-5 -11,-11 -21,-10 -5,0 -9,2 -11,4 -2,1 -7,6 -8,9z"/>
  <path class="fil1" d="M75 -571l-6 0c0,0 2,0 2,0 3,-1 1,0 2,-1l-28 -1c0,2 1,3 3,4 1,2 2,3 4,4 12,6 29,0 32,-9l-1 -1c-2,1 -2,3 -6,6 -11,8 -26,3 -28,-2l25 1c1,-1 0,0 1,-1z"/>
  <path class="fil2" d="M73 -572c-1,1 1,0 -2,1 0,0 -2,0 -2,0l6 0c1,0 1,0 2,-1 1,-3 0,-7 -3,-7 -3,-1 -13,-1 -14,-1 -2,-1 -1,0 -1,-1 0,-1 0,-1 5,-1 7,0 12,1 14,-3 -2,1 0,1 -2,1 -6,1 -13,-1 -19,0 0,3 -1,5 1,6 4,1 13,-1 17,1 1,3 1,4 -2,5z"/>
  <path class="fil3" d="M76 -584c2,0 0,0 2,-1 1,-1 0,-4 0,-5 -3,-3 -13,-1 -17,-2 -3,0 -2,1 -2,-1 0,-2 7,-1 10,-1 7,0 7,1 9,1 1,-2 1,-2 0,-3 -2,-1 -2,0 -4,0 -4,0 -12,-1 -16,0 -1,2 -1,4 -1,6 9,1 24,-2 19,6z"/>
  <path class="fil4" d="M52 -597c-1,0 -1,0 -2,1l1 -5c-2,1 -1,12 -2,16 0,2 -1,5 0,5 1,2 3,1 3,0 0,-2 -1,-1 -1,-5 0,-4 1,-8 1,-12z"/>
  <path class="fil5" d="M83 -575l1 1c2,-2 3,-6 4,-9 0,-2 0,-4 0,-6 0,-2 1,-5 -1,-5 -1,-1 -1,-1 -2,0 -1,2 0,3 0,3 1,1 2,0 1,5 0,2 0,4 -1,6 0,2 -1,3 -2,5z"/>
  <path class="fil6" d="M41 -590c-1,1 0,1 -1,1l0 -2c-1,2 -1,4 -1,6 0,2 -1,6 2,5 4,0 1,-4 1,-4 -1,-1 -1,-4 -1,-6z"/>
  <path class="fil7" d="M40 -591l0 2c1,0 0,0 1,-1l2 -7 -1 0 0 -1c-1,1 0,-1 -1,1 0,0 0,2 0,2 -1,2 -1,2 -1,4z"/>
  <path class="fil0" d="M42 -598l0 1 1 0c3,-6 8,-10 15,-12 9,-2 17,2 21,6 -5,0 -10,0 -15,-1 -6,0 -12,-1 -13,3l-1 5c1,-1 1,-1 2,-1 0,-3 0,-5 3,-5 3,0 7,0 10,0 4,1 13,1 17,1 0,-5 -11,-11 -21,-10 -5,0 -9,2 -11,4 -2,1 -7,6 -8,9z"/>
  <path class="fil1" d="M75 -571l-6 0c0,0 2,0 2,0 3,-1 1,0 2,-1l-28 -1c0,2 1,3 3,4 1,2 2,3 4,4 12,6 29,0 32,-9l-1 -1c-2,1 -2,3 -6,6 -11,8 -26,3 -28,-2l25 1c1,-1 0,0 1,-1z"/>
  <path class="fil2" d="M73 -572c-1,1 1,0 -2,1 0,0 -2,0 -2,0l6 0c1,0 1,0 2,-1 1,-3 0,-7 -3,-7 -3,-1 -13,-1 -14,-1 -2,-1 -1,0 -1,-1 0,-1 0,-1 5,-1 7,0 12,1 14,-3 -2,1 0,1 -2,1 -6,1 -13,-1 -19,0 0,3 -1,5 1,6 4,1 13,-1 17,1 1,3 1,4 -2,5z"/>
  <path class="fil3" d="M76 -584c2,0 0,0 2,-1 1,-1 0,-4 0,-5 -3,-3 -13,-1 -17,-2 -3,0 -2,1 -2,-1 0,-2 7,-1 10,-1 7,0 7,1 9,1 1,-2 1,-2 0,-3 -2,-1 -2,0 -4,0 -4,0 -12,-1 -16,0 -1,2 -1,4 -1,6 9,1 24,-2 19,6z"/>
  <path class="fil4" d="M52 -597c-1,0 -1,0 -2,1l1 -5c-2,1 -1,12 -2,16 0,2 -1,5 0,5 1,2 3,1 3,0 0,-2 -1,-1 -1,-5 0,-4 1,-8 1,-12z"/>
  <path class="fil5" d="M83 -575l1 1c2,-2 3,-6 4,-9 0,-2 0,-4 0,-6 0,-2 1,-5 -1,-5 -1,-1 -1,-1 -2,0 -1,2 0,3 0,3 1,1 2,0 1,5 0,2 0,4 -1,6 0,2 -1,3 -2,5z"/>
  <path class="fil6" d="M41 -590c-1,1 0,1 -1,1l0 -2c-1,2 -1,4 -1,6 0,2 -1,6 2,5 4,0 1,-4 1,-4 -1,-1 -1,-4 -1,-6z"/>
  <path class="fil7" d="M40 -591l0 2c1,0 0,0 1,-1l2 -7 -1 0 0 -1c-1,1 0,-1 -1,1 0,0 0,2 0,2 -1,2 -1,2 -1,4z"/>
  <path class="fil0" d="M42 -598l0 1 1 0c3,-6 8,-10 15,-12 9,-2 17,2 21,6 -5,0 -10,0 -15,-1 -6,0 -12,-1 -13,3l-1 5c1,-1 1,-1 2,-1 0,-3 0,-5 3,-5 3,0 7,0 10,0 4,1 13,1 17,1 0,-5 -11,-11 -21,-10 -5,0 -9,2 -11,4 -2,1 -7,6 -8,9z"/>
  <path class="fil1" d="M75 -571l-6 0c0,0 2,0 2,0 3,-1 1,0 2,-1l-28 -1c0,2 1,3 3,4 1,2 2,3 4,4 12,6 29,0 32,-9l-1 -1c-2,1 -2,3 -6,6 -11,8 -26,3 -28,-2l25 1c1,-1 0,0 1,-1z"/>
  <path class="fil2" d="M73 -572c-1,1 1,0 -2,1 0,0 -2,0 -2,0l6 0c1,0 1,0 2,-1 1,-3 0,-7 -3,-7 -3,-1 -13,-1 -14,-1 -2,-1 -1,0 -1,-1 0,-1 0,-1 5,-1 7,0 12,1 14,-3 -2,1 0,1 -2,1 -6,1 -13,-1 -19,0 0,3 -1,5 1,6 4,1 13,-1 17,1 1,3 1,4 -2,5z"/>
  <path class="fil3" d="M76 -584c2,0 0,0 2,-1 1,-1 0,-4 0,-5 -3,-3 -13,-1 -17,-2 -3,0 -2,1 -2,-1 0,-2 7,-1 10,-1 7,0 7,1 9,1 1,-2 1,-2 0,-3 -2,-1 -2,0 -4,0 -4,0 -12,-1 -16,0 -1,2 -1,4 -1,6 9,1 24,-2 19,6z"/>
  <path class="fil4" d="M52 -597c-1,0 -1,0 -2,1l1 -5c-2,1 -1,12 -2,16 0,2 -1,5 0,5 1,2 3,1 3,0 0,-2 -1,-1 -1,-5 0,-4 1,-8 1,-12z"/>
  <path class="fil5" d="M83 -575l1 1c2,-2 3,-6 4,-9 0,-2 0,-4 0,-6 0,-2 1,-5 -1,-5 -1,-1 -1,-1 -2,0 -1,2 0,3 0,3 1,1 2,0 1,5 0,2 0,4 -1,6 0,2 -1,3 -2,5z"/>
  <path class="fil6" d="M41 -590c-1,1 0,1 -1,1l0 -2c-1,2 -1,4 -1,6 0,2 -1,6 2,5 4,0 1,-4 1,-4 -1,-1 -1,-4 -1,-6z"/>
  <path class="fil7" d="M40 -591l0 2c1,0 0,0 1,-1l2 -7 -1 0 0 -1c-1,1 0,-1 -1,1 0,0 0,2 0,2 -1,2 -1,2 -1,4z"/>
  <path class="fil0" d="M42 -598l0 1 1 0c3,-6 8,-10 15,-12 9,-2 17,2 21,6 -5,0 -10,0 -15,-1 -6,0 -12,-1 -13,3l-1 5c1,-1 1,-1 2,-1 0,-3 0,-5 3,-5 3,0 7,0 10,0 4,1 13,1 17,1 0,-5 -11,-11 -21,-10 -5,0 -9,2 -11,4 -2,1 -7,6 -8,9z"/>
  <path class="fil1" d="M75 -571l-6 0c0,0 2,0 2,0 3,-1 1,0 2,-1l-28 -1c0,2 1,3 3,4 1,2 2,3 4,4 12,6 29,0 32,-9l-1 -1c-2,1 -2,3 -6,6 -11,8 -26,3 -28,-2l25 1c1,-1 0,0 1,-1z"/>
  <path class="fil2" d="M73 -572c-1,1 1,0 -2,1 0,0 -2,0 -2,0l6 0c1,0 1,0 2,-1 1,-3 0,-7 -3,-7 -3,-1 -13,-1 -14,-1 -2,-1 -1,0 -1,-1 0,-1 0,-1 5,-1 7,0 12,1 14,-3 -2,1 0,1 -2,1 -6,1 -13,-1 -19,0 0,3 -1,5 1,6 4,1 13,-1 17,1 1,3 1,4 -2,5z"/>
  <path class="fil3" d="M76 -584c2,0 0,0 2,-1 1,-1 0,-4 0,-5 -3,-3 -13,-1 -17,-2 -3,0 -2,1 -2,-1 0,-2 7,-1 10,-1 7,0 7,1 9,1 1,-2 1,-2 0,-3 -2,-1 -2,0 -4,0 -4,0 -12,-1 -16,0 -1,2 -1,4 -1,6 9,1 24,-2 19,6z"/>
  <path class="fil4" d="M52 -597c-1,0 -1,0 -2,1l1 -5c-2,1 -1,12 -2,16 0,2 -1,5 0,5 1,2 3,1 3,0 0,-2 -1,-1 -1,-5 0,-4 1,-8 1,-12z"/>
  <path class="fil5" d="M83 -575l1 1c2,-2 3,-6 4,-9 0,-2 0,-4 0,-6 0,-2 1,-5 -1,-5 -1,-1 -1,-1 -2,0 -1,2 0,3 0,3 1,1 2,0 1,5 0,2 0,4 -1,6 0,2 -1,3 -2,5z"/>
  <path class="fil6" d="M41 -590c-1,1 0,1 -1,1l0 -2c-1,2 -1,4 -1,6 0,2 -1,6 2,5 4,0 1,-4 1,-4 -1,-1 -1,-4 -1,-6z"/>
  <path class="fil7" d="M40 -591l0 2c1,0 0,0 1,-1l2 -7 -1 0 0 -1c-1,1 0,-1 -1,1 0,0 0,2 0,2 -1,2 -1,2 -1,4z"/>
  <g id="_459424120">
   <path class="fil0" d="M11 40l0 3 3 0c7,-17 21,-29 41,-34 25,-6 48,5 60,17 -14,0 -28,0 -43,-3 -17,0 -34,-3 -36,8l-2 14c2,-2 2,-2 5,-2 0,-9 0,-15 8,-15 9,0 20,0 28,0 12,3 37,3 49,3 -1,-14 -33,-31 -61,-28 -14,0 -25,6 -31,11 -5,3 -19,17 -21,26l0 0z"/>
   <path class="fil1" d="M108 116l-17 0c0,0 6,0 6,0 8,-2 3,0 5,-2l-79 -3c0,5 3,8 9,11 3,6 6,9 12,11 35,17 82,0 89,-25l-3 -3c-5,3 -5,9 -16,17 -30,23 -73,9 -79,-6l71 3c2,-3 0,0 2,-3l0 0z"/>
   <path class="fil2" d="M102 114c-2,2 3,0 -5,2 0,0 -6,0 -6,0l17 0c3,0 3,0 6,-2 2,-9 -1,-20 -10,-20 -8,-3 -37,-3 -40,-3 -5,-3 -2,0 -3,-3 0,-3 0,-3 14,-3 20,0 35,3 40,-8 -6,3 0,3 -6,3 -17,2 -37,-3 -54,0 1,8 -2,14 4,17 12,2 37,-3 48,2 4,9 4,12 -5,15l0 0z"/>
   <path class="fil3" d="M109 80c6,0 0,0 6,-3 2,-3 -1,-12 -1,-14 -9,-9 -37,-3 -48,-6 -9,0 -6,3 -6,-3 -1,-6 19,-3 28,-3 20,0 20,3 26,3 2,-6 2,-6 -1,-9 -6,-2 -5,0 -11,0 -11,0 -34,-2 -46,0 -2,6 -2,12 -2,18 26,2 68,-6 55,17l0 0z"/>
   <path class="fil4" d="M39 43c-3,0 -3,0 -5,2l2 -14c-6,3 -1,34 -3,46 0,5 -3,14 0,14 3,6 9,3 9,0 -1,-6 -3,-3 -4,-14 0,-12 2,-23 1,-34z"/>
   <path class="fil5" d="M130 105l3 3c6,-6 8,-17 10,-26 0,-5 0,-11 0,-17 -1,-5 2,-14 -4,-14 -3,-3 -3,-3 -6,0 -2,6 1,9 1,9 3,3 5,0 3,14 1,6 1,11 -2,17 1,6 -2,8 -5,14l0 0z"/>
   <path class="fil6" d="M9 63c-3,2 0,2 -3,2l0 -5c-2,5 -2,11 -2,17 0,5 -2,17 7,14 11,0 2,-11 2,-11 -3,-3 -4,-12 -4,-17z"/>
   <path class="fil7" d="M6 60l0 5c3,0 0,0 3,-2l5 -20 -3 0 0 -3c-3,3 0,-3 -3,3 0,0 0,5 0,5 -2,6 -2,6 -2,12z"/>
  </g>
 </g>
</svg>
